# xmcd CD database file
#
# Track frame offsets:
#	150
#	10647
#	27297
#	37412
#	63382
#	78890
#	90442
#	102962
#	117587
#	148120
#	167677
#	185060
#	201192
#	219265
#	235162
#	248630
#
# Disc length: 3524 seconds
#
# Revision: 0
# Processed by: cddbd v1.5PL3 Copyright (c) Steve Scherf et al.
# Submitted via: CDex 1.51
#
DISCID=d70dc210
DTITLE=Carien Wijnen - Women in Circle
DYEAR=1998
DGENRE=New Age
TTITLE0=Take me away
TTITLE1=The Earth is our Mother
TTITLE2=Now I walk in Beauty
TTITLE3=Spirit of the Wind
TTITLE4=Evening Breeze
TTITLE5=Yani Yoni Ya Hu Way Hey
TTITLE6=We are the Power
TTITLE7=Holy Mother
TTITLE8=Every Part of the Earth
TTITLE9=Return again
TTITLE10=Hashiwenu
TTITLE11=I am the Circle
TTITLE12=Round and Rround we go
TTITLE13=Fullmoonlight Dance
TTITLE14=Kwaheri
TTITLE15=May the Circle be open
EXTD=YEAR: 1998
EXTT0=
EXTT1=
EXTT2=
EXTT3=
EXTT4=
EXTT5=
EXTT6=
EXTT7=
EXTT8=
EXTT9=
EXTT10=
EXTT11=
EXTT12=
EXTT13=
EXTT14=
EXTT15=
PLAYORDER=
